<?xml version="1.0" encoding="utf-8"?>
<!-- Generator: Adobe Illustrator 22.1.0, SVG Export Plug-In . SVG Version: 6.00 Build 0)  -->
<svg version="1.1" id="Layer_1" xmlns="http://www.w3.org/2000/svg" xmlns:xlink="http://www.w3.org/1999/xlink" x="0px" y="0px"
	 viewBox="0 0 32 32" style="enable-background:new 0 0 32 32;" xml:space="preserve">
<title>raspberry-pi</title>
<path d="M21.5,23.1c-1.1,1.3-1.8,3.7-0.9,4.5c0.8,0.6,2.9,0.5,4.5-1.6c1.2-1.4,0.8-3.9,0.1-4.5C24.2,20.7,22.8,21.7,21.5,23.1
	L21.5,23.1z M10.7,23.5c-1.2-1.4-2.8-2.2-3.8-1.6c-0.7,0.5-0.8,2.2,0.2,4c1.4,2,3.5,2.2,4.3,1.7C12.3,27,11.8,24.8,10.7,23.5
	L10.7,23.5z M16.2,27.7c-1.5,0-3.7,0.6-3.7,1.4c0,0.5,1.8,2.1,3.6,2c1.8,0,3.6-1.5,3.6-2.2C19.7,28.2,17.7,27.7,16.2,27.7L16.2,27.7
	z M16.1,9.1c-1.7,0-3.3,1.2-3.3,2c0,0.9,1.3,1.8,3.3,1.9c2.1,0,3.4-0.7,3.4-1.7C19.5,10.2,17.6,9.1,16.1,9.1L16.1,9.1z M12,9.8
	C9.2,9.4,6.8,11,6.9,14.1C7,15.3,13.1,10,12,9.8L12,9.8z M25,14.2c0.1-3-2.3-4.7-5.1-4.2C18.8,10.1,24.9,15.3,25,14.2z M25.5,15.3
	c-1.7-0.4-0.6,6.7,0.8,6.2C27.8,20.3,28.2,16.8,25.5,15.3L25.5,15.3z M5.6,21.5c1.3,0.6,2.4-6.6,0.8-6.1C3.7,16.9,4.2,20.3,5.6,21.5
	L5.6,21.5z M18.2,13.6c-1.5,1-1.8,3.2-0.6,5c1.2,1.8,3.4,2.4,4.9,1.4c1.5-1,1.8-3.2,0.6-5C21.9,13.2,19.7,12.6,18.2,13.6L18.2,13.6z
	 M14.1,13.7c-1.5-1-3.7-0.3-4.9,1.4c-1.2,1.8-0.9,4,0.6,5c1.5,1,3.7,0.4,4.9-1.4C15.9,17,15.6,14.8,14.1,13.7L14.1,13.7z M19.9,23.3
	c0-1.9-1.7-3.4-3.7-3.3c-2,0-3.7,1.5-3.7,3.4v0c0,1.9,1.7,3.4,3.7,3.3C18.3,26.7,19.9,25.2,19.9,23.3L19.9,23.3L19.9,23.3z
	 M24.2,3.1C21.1,4.7,19.3,6,18.3,7c0.5,2,3.1,2.1,4.1,2C22.2,9,22,8.9,22,8.7c0.2-0.2,1.1,0,1.7-0.3c-0.2,0-0.3-0.1-0.4-0.3
	c0.6-0.2,1.2-0.3,1.5-0.6c-0.2,0-0.4,0-0.6-0.1c0.5-0.3,1-0.5,1.5-0.9c-0.3,0-0.5,0-0.6-0.1c0.5-0.3,0.8-0.6,1.2-0.9
	c-0.4,0.1-0.5,0-0.6,0c0.3-0.3,0.8-0.6,1-1.1c-0.3,0.1-0.5,0.1-0.7,0c0.1-0.3,0.6-0.4,0.9-1c-0.3,0-0.6,0.1-0.7,0
	c0.1-0.5,0.4-0.8,0.6-1.1c-0.6,0-1.5,0-1.5,0l0.4-0.4c-0.6-0.2-1.2,0-1.6,0.2c-0.2-0.1,0-0.3,0.2-0.5c-0.5,0.1-1,0.2-1.4,0.3
	c-0.2-0.2,0.1-0.4,0.3-0.6c-0.8,0.2-1.1,0.4-1.5,0.6c-0.2-0.2,0-0.4,0.1-0.6c-0.6,0.2-0.9,0.5-1.2,0.8c-0.1-0.1-0.3-0.2-0.1-0.6
	c-0.4,0.2-0.7,0.5-1,0.8c-0.3-0.2-0.2-0.4-0.2-0.6c-0.4,0.4-0.7,0.7-1.1,1.1c-0.1,0-0.1-0.2-0.2-0.5c-1,1-2.5,3.5-0.4,4.5
	C19.5,5.1,21.7,4,24.2,3.1L24.2,3.1z M7.8,3.1c2.4,0.8,4.6,1.9,6.4,3.4c2.1-1,0.7-3.5-0.4-4.5c-0.1,0.3-0.1,0.4-0.2,0.5
	c-0.3-0.4-0.6-0.7-1.1-1.1c0,0.2,0.1,0.4-0.2,0.6c-0.2-0.3-0.5-0.6-1-0.8c0.2,0.3,0,0.4-0.1,0.6c-0.3-0.3-0.6-0.6-1.2-0.8
	c0.2,0.2,0.4,0.4,0.2,0.6C10,1.4,9.7,1.2,8.9,1c0.2,0.2,0.5,0.4,0.3,0.6C8.8,1.5,8.4,1.3,7.9,1.3c0.2,0.2,0.5,0.4,0.3,0.5
	C7.6,1.7,7,1.5,6.4,1.6L6.8,2c0,0.1-0.9,0-1.5,0c0.2,0.3,0.5,0.6,0.6,1.1c-0.1,0.1-0.4,0-0.6,0C5.6,3.8,6,4,6.2,4.2
	C6,4.3,5.8,4.3,5.5,4.2c0.2,0.4,0.7,0.7,1,1.1C6.4,5.4,6.2,5.4,5.9,5.4C6.2,5.7,6.5,6,7,6.3C6.9,6.4,6.6,6.4,6.4,6.4
	c0.4,0.4,1,0.6,1.5,0.9C7.6,7.5,7.4,7.4,7.2,7.4c0.3,0.3,1,0.4,1.5,0.6C8.6,8.2,8.5,8.3,8.3,8.3C8.9,8.6,9.7,8.5,10,8.6
	C9.9,8.8,9.7,8.9,9.5,9c1,0.1,3.6,0,4.1-2C12.6,5.9,10.8,4.7,7.8,3.1L7.8,3.1z M10.1,0.1c0.3,0,0.6,0.2,0.9,0.3
	c0.7-0.2,0.9,0.1,1.2,0.2c0.8-0.2,1,0.2,1.4,0.6l0.4,0c1.2,0.7,1.7,2.1,1.9,2.8c0.2-0.7,0.8-2.1,1.9-2.8l0.4,0
	c0.4-0.4,0.6-0.7,1.4-0.6c0.3-0.1,0.5-0.4,1.2-0.2c0.4-0.1,0.8-0.5,1.4-0.1c0.5-0.2,1-0.3,1.4,0.1c0.7-0.1,0.9,0.1,1,0.3
	c0.1,0,1.1-0.1,1.5,0.5c1.1-0.1,1.4,0.6,1,1.3c0.2,0.3,0.5,0.7-0.1,1.3c0.2,0.4,0.1,0.7-0.4,1.2c0.1,0.5-0.1,0.8-0.5,1.1
	c0.1,0.7-0.6,1.1-0.8,1.2c-0.1,0.4-0.2,0.8-1.1,1c-0.1,0.6-0.6,0.7-1.1,0.8c1.6,0.9,2.9,2.1,2.9,5l0.2,0.4c1.8,1.1,3.4,4.5,0.9,7.4
	c-0.2,0.9-0.4,1.5-0.7,2.2c-0.4,2.8-2.8,4.1-3.4,4.3c-0.9,0.7-1.9,1.4-3.3,1.8c-1.3,1.3-2.6,1.8-4,1.8H16c-1.4,0-2.8-0.5-4-1.8
	c-1.3-0.5-2.3-1.1-3.3-1.8c-0.6-0.2-3-1.5-3.4-4.3c-0.2-0.7-0.5-1.3-0.7-2.2c-2.5-2.8-0.9-6.3,0.9-7.4l0.2-0.4c0-2.9,1.3-4.1,2.9-5
	C8.1,9,7.7,8.9,7.5,8.3c-0.8-0.2-1-0.6-1.1-1C6.3,7.2,5.5,6.8,5.6,6.1C5.2,5.8,5,5.5,5.1,5C4.7,4.5,4.6,4.1,4.8,3.8
	c-0.5-0.6-0.3-1-0.1-1.3c-0.4-0.7,0-1.5,1-1.3c0.4-0.6,1.4-0.5,1.5-0.5c0.2-0.2,0.4-0.4,1-0.3C8.7,0,9.2,0,9.7,0.2
	C9.9,0.1,10,0,10.2,0L10.1,0.1z"/>
</svg>
